<svg fill="none" height="25" viewBox="0 0 25 25" width="25" xmlns="http://www.w3.org/2000/svg"><path d="m18.2625 16.2064c-.575 0-1.05-.4925-1.05-1.1048s.475-1.0915 1.05-1.0915 1.05.4792 1.05 1.0915-.475 1.1048-1.05 1.1048zm-11.5 0c-.575 0-1.05-.4925-1.05-1.1048s.475-1.0915 1.05-1.0915 1.0375.4792 1.0375 1.0915-.4625 1.1048-1.0375 1.1048zm11.875-6.66874 2.0875-3.83352c.1125-.22629.0375-.50582-.1625-.62561-.2125-.13311-.475-.05325-.5625.17304l-2.1375 3.87346c-1.6823-.81964-3.5125-1.23761-5.3625-1.2246-1.9125 0-3.75.43926-5.3375 1.21129l-2.1125-3.87346c-.02652-.0539-.06315-.10143-.10761-.13965-.04447-.03821-.09583-.0663-.15091-.08252-.05507-.01622-.11269-.02023-.16927-.01178-.05659.00845-.11095.02918-.15971.0609-.2125.1198-.275.39933-.1625.62561l2.075 3.83353c-3.5625 2.07645-6.0125 5.92335-6.375 10.47565h25c-.35-4.539-2.7875-8.3858-6.3625-10.46234z" fill="#fff"/></svg>