<svg fill="none" height="20" viewBox="0 0 18 20" width="18" xmlns="http://www.w3.org/2000/svg"><path clip-rule="evenodd" d="m12.2586 0c.1783 1.21489-.3143 2.40499-.965 3.24629-.6955.90362-1.8961 1.60235-3.05795 1.56599-.21179-1.16365.33167-2.36106.99236-3.16734.72435-.888697 1.96709-1.5711255 3.03059-1.64494zm.3903 4.68076c1.3552 0 2.79.74512 3.8112 2.02902-3.3473 1.85113-2.8051 6.67362.577 7.96482-.4647 1.0402-.6881 1.5037-1.2876 2.425-.8365 1.2848-2.0146 2.8862-3.4769 2.8976-.6011.0064-.9955-.176-1.4208-.3728-.4928-.228-1.02703-.4751-1.97252-.4698-.94065.0046-1.48353.2488-1.98315.4734-.43606.1961-.83916.3774-1.44501.3717-1.4612-.0126-2.5782-1.4575-3.41456-2.7426-2.337366-3.5912-2.584306-7.80745-1.142081-10.04997 1.026091-1.59241 2.644241-2.52378 4.163831-2.52378.80987 0 1.46264.23473 2.0847.45841.56616.20358 1.10688.39802 1.71746.39802.56505 0 1.02961-.17754 1.53633-.37119.6079-.23232 1.2765-.48783 2.2521-.48783z" fill="#fff" fill-rule="evenodd"/></svg>