<svg fill="none" height="30" viewBox="0 0 30 30" width="30" xmlns="http://www.w3.org/2000/svg"><path d="m3.75 7.5c0-.33152.1317-.64946.36612-.88388s.55236-.36612.88388-.36612h20c.3315 0 .6495.1317.8839.36612s.3661.55236.3661.88388-.1317.64946-.3661.88388-.5524.36612-.8839.36612h-20c-.33152 0-.64946-.1317-.88388-.36612s-.36612-.55236-.36612-.88388zm21.25 6.25h-20c-.33152 0-.64946.1317-.88388.3661s-.36612.5524-.36612.8839.1317.6495.36612.8839.55236.3661.88388.3661h20c.3315 0 .6495-.1317.8839-.3661s.3661-.5524.3661-.8839-.1317-.6495-.3661-.8839-.5524-.3661-.8839-.3661zm0 7.5h-20c-.33152 0-.64946.1317-.88388.3661s-.36612.5524-.36612.8839.1317.6495.36612.8839.55236.3661.88388.3661h20c.3315 0 .6495-.1317.8839-.3661s.3661-.5524.3661-.8839-.1317-.6495-.3661-.8839-.5524-.3661-.8839-.3661z" fill="#fff"/></svg>