<svg fill="none" height="16" viewBox="0 0 16 16" width="16" xmlns="http://www.w3.org/2000/svg"><path d="m12.6695 4.00031c-.6316-.62721-1.3822-1.12194-2.2076-1.45515-.8255-.33321-1.70918-.49818-2.59926-.48525-1.67086-.00418-3.27495.65556-4.45938 1.83409s-1.85219 2.7793-1.85637 4.45016c-.00417 1.67084.65557 3.27494 1.8341 4.45934 1.17852 1.1845 2.77929 1.8522 4.45015 1.8564.36005.0061.71193-.1075 1.00041-.323.28849-.2155.49724-.5207.5935-.8677.06135-.2506.06072-.5123-.00186-.7626-.06257-.2503-.18519-.4816-.35725-.6738-.03978-.0453-.06574-.101-.07479-.1606s-.00082-.1205.02372-.1756c.02454-.055.06436-.1019.11473-.135s.10918-.051.16944-.0517h1.03946c.9784.0046 1.9223-.3611 2.6421-1.0237.7199-.66261 1.1624-1.573 1.2387-2.54839.0235-.72726-.1019-1.45165-.3684-2.12873s-.6685-1.29259-1.1814-1.80877zm-8.00096 6.08579c-.15468.1051-.33708.162-.5241.1634s-.37025-.0527-.52649-.1555c-.15624-.10281-.27846-.24966-.3512-.42196-.07273-.1723-.0927-.36231-.05738-.54597.03531-.18366.12434-.35271.25579-.48575.13145-.13303.29942-.22407.48265-.26158.18322-.03752.37346-.01982.54662.05085.17316.07066.32146.19112.42611.34612.07014.10238.11927.21764.14457.33913s.02626.24679.00283.36865c-.02344.12186-.0708.23786-.13936.3413-.06855.10344-.15694.19221-.26004.26131zm.9198-3.45869c-.08963.16602-.22691.3014-.39416.38872-.16725.08733-.3568.12259-.54426.10124-.18746-.02134-.36424-.0983-.50758-.22098s-.24668-.28546-.2967-.46738c-.05003-.18191-.04446-.37464.01599-.55337.06046-.17872.17302-.33525.32321-.44945.15019-.11419.33112-.18082.5195-.19129.18838-.01048.37558.03567.5375.13251.20894.12495.36159.32572.42614.56046.06456.23473.03603.48532-.07964.69954zm1.701-1.4175c-.1869 0-.3696-.05542-.52501-.15926-.1554-.10384-.27653-.25143-.34805-.4241-.07153-.17268-.09024-.36269-.05378-.546.03647-.18331.12647-.3517.25863-.48386s.30054-.22216.48385-.25862c.18332-.03647.37332-.01775.546.05377.17268.07153.32027.19265.4241.34806.10384.1554.15926.33811.15926.52501 0 .25063-.09956.49099-.27678.66822-.17722.17722-.41759.27678-.66822.27678zm3.62246.504c-.1619.09684-.3491.14299-.5375.13251-.1883-.01047-.3693-.0771-.51946-.19129-.15019-.11419-.26275-.27073-.32321-.44945-.06045-.17873-.06602-.37145-.01599-.55337.05002-.18192.15336-.3447.2967-.46738s.32016-.19964.50756-.22098c.1875-.02134.377.01392.5443.10124.1672.08732.3045.2227.3941.38872.1157.21422.1442.46481.0797.69955-.0646.23473-.2172.4355-.4262.56045z" fill="#242028"/></svg>