<svg fill="none" height="24" viewBox="0 0 24 24" width="24" xmlns="http://www.w3.org/2000/svg"><path d="m20.0472 5.35941c-1.4341-.62921-2.9719-1.09279-4.5798-1.3583-.0293-.00512-.0585.00769-.0736.0333-.1978.33636-.4169.77518-.5703 1.12009-1.7294-.24757-3.4499-.24757-5.14383 0-.15344-.35257-.38047-.78373-.57913-1.12009-.01509-.02476-.04434-.03757-.07362-.0333-1.60701.26466-3.14483.72824-4.57979 1.3583-.01243.00512-.02308.01367-.03014.02476-2.91694 4.16709-3.716006 8.23173-3.32401 12.24603.00178.0196.0133.0384.02927.0504 1.92451 1.3514 3.78872 2.1719 5.61832 2.7157.02928.0085.06031-.0017.07894-.0248.43279-.5651.81859-1.161 1.14937-1.7877.01952-.0367.00089-.0802-.03901-.0948-.61194-.2219-1.19462-.4926-1.75513-.7999-.04433-.0248-.04788-.0854-.00709-.1144.11795-.0845.23593-.1725.34856-.2613.02037-.0162.04877-.0196.07272-.0094 3.68227 1.6076 7.66877 1.6076 11.30757 0 .024-.011.0524-.0076.0736.0086.1127.0888.2306.1776.3495.2621.0408.029.0381.0896-.0062.1144-.5605.3133-1.1432.578-1.7561.7991-.0398.0145-.0576.0589-.0381.0956.3379.6258.7237 1.2217 1.1485 1.7869.0178.0239.0497.0341.0789.0256 1.8385-.5438 3.7027-1.3643 5.6272-2.7157.0169-.012.0275-.0299.0293-.0496.4692-4.6409-.7858-8.67223-3.3267-12.24598-.0062-.01194-.0168-.02049-.0292-.02561zm-11.52843 9.82649c-1.10862 0-2.02209-.9732-2.02209-2.1685 0-1.1952.89576-2.1684 2.02209-2.1684 1.13517 0 2.03983.9817 2.02203 2.1684 0 1.1953-.89573 2.1685-2.02203 2.1685zm7.47633 0c-1.1086 0-2.0221-.9732-2.0221-2.1685 0-1.1952.8957-2.1684 2.0221-2.1684 1.1352 0 2.0398.9817 2.0221 2.1684 0 1.1953-.8869 2.1685-2.0221 2.1685z" fill="#fff"/></svg>