<svg fill="none" height="30" viewBox="0 0 30 30" width="30" xmlns="http://www.w3.org/2000/svg"><path d="m23.5531 7.02934c-1.6133-.70787-3.3434-1.22939-5.1523-1.52809-.0329-.00576-.0658.00864-.0828.03746-.2225.37841-.469.87208-.6415 1.2601-1.9456-.27852-3.8812-.27852-5.7869 0-.1726-.39664-.428-.88169-.6515-1.2601-.017-.02785-.0499-.04226-.0828-.03746-1.8079.29775-3.53795.81927-5.15228 1.52809-.01398.00576-.02596.01537-.03391.02785-3.28155 4.68801-4.1805 9.26071-3.73951 13.77681.002.0221.01497.0432.03293.0566 2.16507 1.5204 4.26232 2.4434 6.32061 3.0552.03294.0096.06785-.0019.08881-.0278.48689-.6358.92091-1.3062 1.29304-2.0112.02196-.0413.001-.0903-.04389-.1066-.68842-.2497-1.34395-.5542-1.97451-.9-.04988-.0278-.05387-.096-.00799-.1287.1327-.0951.26543-.194.39213-.2939.02292-.0182.05487-.0221.08182-.0105 4.14255 1.8085 8.62735 1.8085 12.72105 0 .0269-.0125.0589-.0087.0828.0096.1267.0998.2594.1997.3931.2948.0459.0327.0429.1009-.007.1287-.6305.3525-1.2861.6503-1.9755.899-.0449.0163-.0648.0663-.0429.1076.3801.704.8142 1.3744 1.2921 2.0102.0199.0269.0558.0384.0888.0288 2.0683-.6118 4.1655-1.5348 6.3306-3.0552.0189-.0134.0309-.0336.0329-.0557.5278-5.221-.884-9.7563-3.7425-13.77676-.007-.01343-.0189-.02304-.0329-.0288zm-12.9695 11.05486c-1.24718 0-2.27483-1.0949-2.27483-2.4396 0-1.3446 1.00772-2.4395 2.27483-2.4395 1.2771 0 2.2948 1.1045 2.2748 2.4395 0 1.3447-1.0077 2.4396-2.2748 2.4396zm8.4109 0c-1.2472 0-2.2749-1.0949-2.2749-2.4396 0-1.3446 1.0077-2.4395 2.2749-2.4395 1.2771 0 2.2947 1.1045 2.2748 2.4395 0 1.3447-.9977 2.4396-2.2748 2.4396z" fill="#fff"/></svg>