<svg fill="none" height="40" viewBox="0 0 52 40" width="52" xmlns="http://www.w3.org/2000/svg" xmlns:xlink="http://www.w3.org/1999/xlink"><mask id="a" height="40" maskUnits="userSpaceOnUse" width="52" x="0" y="0"><path clip-rule="evenodd" d="m.261719 39.5261h50.927781v-39.5261h-50.927781z" fill="#fff" fill-rule="evenodd"/></mask><g clip-rule="evenodd" fill-rule="evenodd"><path d="m7.78442 24.1818c-.59968.7119-1.46638 1.1205-2.37839 1.1205-1.73729 0-3.15082-1.4617-3.15082-3.2585 0-1.7965 1.41353-3.2582 3.15082-3.2582.84176 0 1.63319.3388 2.22807.9542l.10068.1044 1.41033-1.4585-.10067-.1041c-.9715-1.005-2.26377-1.5585-3.63841-1.5585-2.83714 0-5.145288 2.3869-5.145288 5.3207 0 2.9339 2.308148 5.321 5.145288 5.321 1.48904 0 2.90441-.6665 3.88254-1.829l.09358-.1109-1.50437-1.3543z" fill="#fff"/><g fill="#fff" mask="url(#a)"><path d="m42.0674 23.564h9.1214v-2.2803h-9.1214z"/><path d="m42.0674 19.0035h9.1214v-2.2804h-9.1214z"/><path d="m42.0674 28.1251h9.1214v-2.2804h-9.1214z"/><path d="m34.3726 8.81274.0935-.11096-1.5043-1.35428-.0934.1112c-.5994.71192-1.4661 1.12052-2.3783 1.12052-1.7375 0-3.1507-1.46169-3.1507-3.25817 0-1.79671 1.4132-3.2584 3.1507-3.2584.8418 0 1.6332.33904 2.2285.95443l.1004.1041 1.4103-1.45862-.1006-.1041c-.972-1.005061-2.2644-1.55846-3.6386-1.55846-2.8371 0-5.1454 2.38702-5.1454 5.32105 0 2.9338 2.3083 5.32055 5.1454 5.32055 1.4892 0 2.9046-.66646 3.8825-1.82886z"/><path d="m30.665 6.08113h6.8411v-2.28035h-6.8411z"/><path d="m2.38168 6.34848h4.88124v4.29312h2.1202v-10.6416h-2.1202v4.29292h-4.88124v-4.29292h-2.119961v10.6416h2.119961z"/><path d="m49.0687 0v4.29315h-4.8812v-4.29315h-2.1201v10.6416h2.1201v-4.29312h4.8812v4.29312h2.1201v-10.6416z"/><path d="m16.9844 10.6416h2.2803v-10.6416h-2.2803z"/><path d="m35.064 24.1929c-.1806-.561-.4243-1.3176-.9591-1.9302.5664-.6123.8766-1.403.8766-2.2416 0-1.6938-1.2825-3.1073-2.9446-3.2771v-.0209h-2.1307v2.0625h1.7967c.6776 0 1.2284.5541 1.2284 1.2355 0 .6642-.5386 1.2171-1.1971 1.2323h-1.828v2.0624l1.7967.0033c.834 0 1.0231.3055 1.4104 1.5095.3056.9486.8166 2.5362 2.6855 2.5362h.9485v-2.0627h-.9485c-.275 0-.3778 0-.7348-1.1092z"/></g><g fill="#ffda06"><path d="m21.5895 24.7068c1.0194-.9223 1.4044-2.4217.8499-3.7632-.705-1.7057-2.6663-2.52-4.3721-1.8149-1.7059.7051-2.5198 2.6665-1.8148 4.3722.5318 1.2865 1.7779 2.0658 3.0901 2.0688-1.0655.6385-2.0216 1.1098-2.6814 1.4118-1.0305-.5799-1.8813-1.4959-2.3671-2.671-1.1513-2.7855.1783-5.9885 2.9638-7.1398 2.7855-1.1514 5.9885.178 7.1399 2.9635 1.1514 2.7856-.1782 5.9887-2.9636 7.1401-.7211.2981-1.4702.4298-2.2044.4132.8758-1.0129 1.7212-2.1086 2.3597-2.9807z"/><path d="m21.7747 19.8844c.4808-.2448.9278-.4574 1.3293-.6328 1.1443-.4997 1.9196-.6966 2.0569-.4729.1374.2238-.389.826-1.3524 1.6204-.6988.5762-1.6275 1.2535-2.6997 1.9607-.4251.2804-.8727.5655-1.3375.8509-.4648.2853-.9215.5555-1.3639.8078-1.1158.6361-2.14 1.1579-2.97 1.5204-1.1444.4997-1.9196.6966-2.057.4729-.1373-.2237.389-.826 1.3524-1.6204.4136-.341.9078-.7175 1.4645-1.1146-.0558-.1663-.0986-.3372-.1278-.5111-.0771-.4599-.0573-.9309.0582-1.3828.0358-.1397.0804-.2767.1336-.41-1.0686.7098-2.017 1.402-2.7634 2.0158-.5306.4363-1.0379.8969-1.4136 1.3394-.1799.212-.4189.5226-.5879.8956-.1506.3325-.4322 1.1437.0433 1.9182.4756.7746 1.3264.8905 1.6911.9066.409.018.7942-.0546 1.0646-.1191.5647-.1348 1.205-.3788 1.8342-.6546 1.29-.5654 2.9227-1.438 4.6159-2.4776 1.6931-1.0395 3.21-2.1007 4.2979-2.9953.5306-.4364 1.038-.897 1.4136-1.3395.1799-.2119.419-.5226.5879-.8956.1506-.3325.4323-1.1437-.0433-1.9182-.4755-.7746-1.3264-.8904-1.691-.9066-.4091-.018-.7943.0546-1.0647.1191-.5646.1348-1.2049.3788-1.8341.6546-.7966.3491-1.7237.8153-2.7151 1.3656.275.027.5462.088.8075.1821.4388.1581.8397.4061 1.177.7281.0318.0304.063.0614.0935.0929zm1.5756-1.6128c.0002-.0001-.0023.0033-.0078.0102.0048-.0067.0076-.0102.0078-.0102zm-9.6029 5.896c.0001-.0001.0044-.0011.0127-.0023-.0087.0018-.0128.0024-.0127.0023zm1.4437 2.3513c-.0002.0001.0022-.0033.0078-.0102-.0049.0067-.0077.0102-.0078.0102zm9.5902-5.8937c.0082-.0012.0125-.0021.0127-.0023.0001-.0001-.0021.0002-.0066.0011-.0017.0003-.0037.0007-.0061.0012z"/></g></g></svg>