<svg fill="none" height="60" viewBox="0 0 142 60" width="142" xmlns="http://www.w3.org/2000/svg"><path d="m9.34185 37.5036h17.18595v8.4964h-26.068566v-45.056773h8.882616zm48.63765 4.5057c-3.3041 3.2612-7.3378 4.8918-12.1009 4.8918-4.7632 0-8.7968-1.6306-12.101-4.8918-3.2612-3.3042-4.8919-7.3379-4.8919-12.101s1.6307-8.7753 4.8919-12.0366c3.3042-3.3042 7.3378-4.9562 12.101-4.9562 4.7631 0 8.7968 1.652 12.1009 4.9562 3.3042 3.2613 4.9563 7.2735 4.9563 12.0366s-1.6521 8.7968-4.9563 12.101zm-18.3445-5.7287c1.6735 1.6735 3.7547 2.5103 6.2436 2.5103 2.4888 0 4.57-.8368 6.2436-2.5103 1.6735-1.6735 2.5103-3.7976 2.5103-6.3723s-.8368-4.6988-2.5103-6.3723c-1.6736-1.6736-3.7548-2.5103-6.2436-2.5103-2.4889 0-4.5701.8367-6.2436 2.5103-1.6306 1.6735-2.446 3.7976-2.446 6.3723s.8154 4.6988 2.446 6.3723zm53.7946-22.464h8.1104v30.6386c0 4.9777-1.6523 8.7753-4.9565 11.3929-3.2612 2.6176-7.2091 3.9264-11.8435 3.9264-3.4758 0-6.5439-.6651-9.2044-1.9954-2.6176-1.3302-4.6344-3.2827-6.0505-5.8574l7.0804-4.0551c1.6306 3.0038 4.4413 4.5057 8.432 4.5057 2.6176 0 4.6773-.6866 6.1792-2.0597 1.5019-1.3732 2.2529-3.3256 2.2529-5.8574v-3.4758c-2.446 3.2612-5.8789 4.8919-10.2987 4.8919-4.5486 0-8.3677-1.5877-11.4573-4.7632-3.0467-3.2183-4.5701-7.1232-4.5701-11.7147 0-4.5486 1.5448-8.4321 4.6344-11.6504 3.0896-3.2184 6.8873-4.8275 11.393-4.8275 4.4198 0 7.8527 1.6306 10.2987 4.8918zm-15.5124 21.9491c1.7164 1.6306 3.8834 2.4459 6.501 2.4459s4.7631-.8153 6.4367-2.4459c1.7164-1.6736 2.5747-3.7977 2.5747-6.3723 0-2.5318-.8583-4.613-2.5747-6.2436-1.6736-1.6736-3.8191-2.5103-6.4367-2.5103s-4.7846.8367-6.501 2.5103c-1.6736 1.6306-2.5104 3.7118-2.5104 6.2436 0 2.5746.8368 4.6987 2.5104 6.3723zm58.5718 6.2436c-3.304 3.2612-7.337 4.8918-12.101 4.8918-4.763 0-8.796-1.6306-12.1-4.8918-3.262-3.3042-4.892-7.3379-4.892-12.101s1.63-8.7753 4.892-12.0366c3.304-3.3042 7.337-4.9562 12.1-4.9562 4.764 0 8.797 1.652 12.101 4.9562 3.305 3.2613 4.957 7.2735 4.957 12.0366s-1.652 8.7968-4.957 12.101zm-18.344-5.7287c1.673 1.6735 3.755 2.5103 6.243 2.5103 2.489 0 4.571-.8368 6.244-2.5103 1.674-1.6735 2.51-3.7976 2.51-6.3723s-.836-4.6988-2.51-6.3723c-1.673-1.6736-3.755-2.5103-6.244-2.5103-2.488 0-4.57.8367-6.243 2.5103-1.631 1.6735-2.446 3.7976-2.446 6.3723s.815 4.6988 2.446 6.3723z" fill="#fff" fill-opacity=".7"/></svg>