<svg width="120" height="100" viewBox="0 0 120 100" fill="none" xmlns="http://www.w3.org/2000/svg">
<mask id="path-1-outside-1_1180_6791" maskUnits="userSpaceOnUse" x="31.1152" y="27.8284" width="46" height="15" fill="black">
<rect fill="white" x="31.1152" y="27.8284" width="46" height="15"/>
<path fill-rule="evenodd" clip-rule="evenodd" d="M39.3349 29.8284C39.2393 29.8284 39.1526 29.8845 39.1135 29.9717L34.1152 41.1109H58.9366H59.0125H74.4129L69.7332 31.8294C69.1145 30.6023 67.8575 29.8284 66.4833 29.8284H59.0125H52.4116H39.3349Z"/>
</mask>
<path fill-rule="evenodd" clip-rule="evenodd" d="M39.3349 29.8284C39.2393 29.8284 39.1526 29.8845 39.1135 29.9717L34.1152 41.1109H58.9366H59.0125H74.4129L69.7332 31.8294C69.1145 30.6023 67.8575 29.8284 66.4833 29.8284H59.0125H52.4116H39.3349Z" fill="#84D3FF"/>
<path d="M39.1135 29.9717L40.331 30.518L40.331 30.518L39.1135 29.9717ZM34.1152 41.1109L32.8977 40.5646L32.0538 42.4454H34.1152V41.1109ZM74.4129 41.1109V42.4454H76.5803L75.6045 40.5101L74.4129 41.1109ZM69.7332 31.8294L70.9248 31.2285L70.9248 31.2285L69.7332 31.8294ZM40.331 30.518C40.155 30.9104 39.765 31.1629 39.3349 31.1629V28.4939C38.7136 28.4939 38.1503 28.8586 37.896 29.4254L40.331 30.518ZM35.3328 41.6573L40.331 30.518L37.896 29.4254L32.8977 40.5646L35.3328 41.6573ZM58.9366 39.7764H34.1152V42.4454H58.9366V39.7764ZM59.0125 39.7764H58.9366V42.4454H59.0125V39.7764ZM74.4129 39.7764H59.0125V42.4454H74.4129V39.7764ZM68.5416 32.4302L73.2213 41.7117L75.6045 40.5101L70.9248 31.2285L68.5416 32.4302ZM66.4833 31.1629C67.3536 31.1629 68.1497 31.653 68.5416 32.4302L70.9248 31.2285C70.0793 29.5516 68.3614 28.4939 66.4833 28.4939V31.1629ZM59.0125 31.1629H66.4833V28.4939H59.0125V31.1629ZM52.4116 31.1629H59.0125V28.4939H52.4116V31.1629ZM39.3349 31.1629H52.4116V28.4939H39.3349V31.1629Z" fill="#84D3FF" mask="url(#path-1-outside-1_1180_6791)"/>
<path d="M40.1225 30.6803C40.1415 30.6353 40.1855 30.6061 40.2343 30.6061H60.1734L60.8566 39.1523H36.5507L40.1225 30.6803Z" fill="#172451" stroke="#172451" stroke-width="1.21318"/>
<path d="M56.4886 34.3667L59.279 40.2506H57.3985L55.2812 35.9169L56.4886 34.3667Z" fill="#84D3FF"/>
<path d="M60.6602 39.2248L56.4304 30.6061H66.2307C67.3876 30.6061 68.4437 31.2643 68.9534 32.3028L72.3505 39.2248H60.6602Z" fill="#84D3FF" stroke="#172451" stroke-width="1.21318"/>
<path d="M18.2307 54.9841L12.5332 49.7086L14.6434 46.3323H38.4886L93.9868 46.7543V61.9477L87.4452 66.1681H22.0291L15.9095 61.9477L18.2307 54.9841Z" fill="url(#paint0_linear_1180_6791)"/>
<path d="M24.044 47.4107L22.5099 59.8826H17.5211L19.0552 47.4107H14.0664L14.6775 42.4219H29.6439L29.0327 47.4107H24.044Z" fill="url(#paint1_linear_1180_6791)"/>
<path d="M30.8911 42.4219H45.8574L43.7122 59.8826H38.7234L39.1849 56.141H34.1961L33.7347 59.8826H28.7459L30.8911 42.4219ZM35.2687 47.4107L34.8073 51.1522H39.796L40.2575 47.4107H35.2687Z" fill="url(#paint2_linear_1180_6791)"/>
<path d="M51.3825 48.1714L49.9482 59.8826H44.9594L47.1046 42.4219H52.0934L56.7329 45.3029L57.0822 42.4219H62.0709L59.9258 59.8826H54.937L56.022 51.0525L51.3825 48.1714Z" fill="url(#paint3_linear_1180_6791)"/>
<path d="M67.5461 48.6578H72.5349L73.2957 42.4219H78.2845L76.9001 53.6466H74.0814L76.9126 59.8826H71.1505L68.3194 53.6466H66.9225L66.1617 59.8826H61.173L63.3181 42.4219H68.3069L67.5461 48.6578Z" fill="url(#paint4_linear_1180_6791)"/>
<path d="M97.492 42.4219L96.8809 47.4107H83.9093L83.7597 48.6578H93.7372L92.3528 59.8826H77.3865L77.9976 54.8938H87.9752L88.1248 53.6466H78.1473L79.5317 42.4219H97.492Z" fill="url(#paint5_linear_1180_6791)"/>
<path fill-rule="evenodd" clip-rule="evenodd" d="M24.0453 47.4108L22.5112 59.8828H17.5225L19.0565 47.4108H14.0677L14.6789 42.422H29.6452L29.0341 47.4108H24.0453ZM13.1849 40.7339L12.1602 49.099H17.148L15.6139 61.5709H24.0045L25.5385 49.099H28.3712L26.839 61.5709H35.2287L35.6902 57.8293H37.2771L36.8156 61.5709H51.4436L52.7382 50.9998L54.2162 51.9176L53.03 61.5709H67.6578L68.1675 57.393L70.0643 61.5709H93.8469L95.5322 48.6945L95.6477 46.9699L96.3727 41.4102L71.8023 40.7339L71.0415 46.9699H69.4541L70.2149 40.7339H55.5876L55.3768 42.473L52.5762 40.7339H13.1849ZM30.8924 42.422L28.7472 59.8828H33.736L34.1975 56.1412H39.1862L38.7248 59.8828H43.7136L45.8587 42.422H30.8924ZM47.1059 42.422L44.9608 59.8828H49.9495L51.3838 48.1716L56.0234 51.0526L54.9383 59.8828H59.9271L62.0723 42.422H57.0835L56.7343 45.3031L52.0947 42.422H47.1059ZM63.3195 42.422L61.1743 59.8828H66.1631L66.9239 53.6468H68.3207L71.1518 59.8828H76.9139L74.0828 53.6468H76.9014L78.2858 42.422H73.297L72.5362 48.658H67.5475L68.3082 42.422H63.3195ZM77.9989 54.894L77.3878 59.8828H92.3542L93.7385 48.658H83.761L83.9106 47.4108H93.8882L94.4993 42.422H79.533L78.1486 53.6468H88.1262L87.9765 54.894H77.9989ZM34.8086 51.1524H39.7974L40.2588 47.4108H35.27L34.8086 51.1524ZM38.3497 49.099H36.7628L36.7177 49.4643H38.3046L38.3497 49.099Z" fill="url(#paint6_linear_1180_6791)"/>
<path d="M14.1289 47.5677L14.6214 42.7839H16.752C16.8997 42.7726 17.3134 42.7836 17.3982 42.7839L19.5842 42.7839L15.2814 43.7999L14.1289 47.5677Z" fill="white"/>
<path fill-rule="evenodd" clip-rule="evenodd" d="M21.6583 67.2207L14.3611 62.5991L15.2233 53.9778L11 49.7546L12.0266 40.0015H53.0227L54.3732 40.9365L54.4617 40.2284L71.8017 39.9807L71.7707 40.213L98.0531 39.9807L94.9641 62.6614L87.8408 67.6477L21.6583 67.2207ZM70.3528 41.2677L55.5814 41.4787L55.3704 43.1668L52.6272 41.2677H13.1665L12.3224 49.2864L16.5428 53.5068L15.6987 61.9476L22.0293 65.957L87.4454 66.379L93.776 61.9476L96.3082 41.2677L71.8299 41.4787L70.9859 47.5982H69.5087L70.3528 41.2677Z" fill="#84D3FF"/>
<path d="M28.9258 59.1011L30.9005 42.7837H33.4383H33.8603H40.824L31.7501 43.6278L28.9258 59.1011Z" fill="white"/>
<path d="M61.3262 59.0232L63.3269 42.7837H66.0206H66.4426H67.9426L64.3324 43.6278L61.3262 59.0232Z" fill="white"/>
<path d="M45.1406 58.8155L47.1153 42.7839H49.246C49.3936 42.7726 49.8073 42.7836 49.8921 42.7839L52.0781 42.7839L47.7753 43.7999L45.1406 58.8155Z" fill="white"/>
<path d="M61.3395 40.0698L57.3477 31.2126H59.4783C59.6258 31.2013 60.0391 31.2123 60.1242 31.2126C60.1255 31.2126 60.1267 31.2126 60.1279 31.2126H66.1255L58.2809 31.7982L61.3395 40.0698Z" fill="white"/>
<path d="M78.1641 53.6966L79.5672 42.7837H81.8797H82.4513H84.9716L80.2713 43.7998L78.1641 53.6966Z" fill="white"/>
<path d="M54.5268 64.9024L46.2971 62.3701H37.8563L35.7461 83.05H42.9208H72.4635H81.5374L76.4729 74.6093L81.9594 70.5999H87.4459L88.712 62.3701L61.2795 65.9575L54.5268 70.5999V64.9024Z" fill="#0D1A43"/>
<path d="M39.5788 64.1108H44.5675L43.0335 76.5828H53.0111L52.3999 81.5715H37.4336L39.5788 64.1108ZM55.7923 64.1108H70.7586L68.6135 81.5715H53.6471L55.7923 64.1108ZM60.17 69.0996L59.247 76.5828H64.2358L65.1587 69.0996H60.17ZM81.3723 69.0996L79.8382 81.5715H74.8494L76.3835 69.0996H71.3947L72.0058 64.1108H86.9722L86.3611 69.0996H81.3723Z" fill="white"/>
<path d="M39.5788 64.1108V62.4226H38.0853L37.9032 63.9049L39.5788 64.1108ZM44.5675 64.1108L46.2431 64.3169L46.4761 62.4226H44.5675V64.1108ZM43.0335 76.5828L41.358 76.3767L41.125 78.2709H43.0335V76.5828ZM53.0111 76.5828L54.6867 76.788L54.9186 74.8946H53.0111V76.5828ZM52.3999 81.5715V83.2597H53.8939L54.0756 81.7768L52.3999 81.5715ZM37.4336 81.5715L35.758 81.3657L35.5253 83.2597H37.4336V81.5715ZM39.5788 65.799H44.5675V62.4226H39.5788V65.799ZM42.892 63.9047L41.358 76.3767L44.709 76.7888L46.2431 64.3169L42.892 63.9047ZM43.0335 78.2709H53.0111V74.8946H43.0335V78.2709ZM51.3354 76.3775L50.7243 81.3663L54.0756 81.7768L54.6867 76.788L51.3354 76.3775ZM52.3999 79.8834H37.4336V83.2597H52.3999V79.8834ZM39.1092 81.7774L41.2543 64.3167L37.9032 63.9049L35.758 81.3657L39.1092 81.7774ZM55.7923 64.1108V62.4226H54.2989L54.1167 63.9049L55.7923 64.1108ZM70.7586 64.1108L72.4342 64.3167L72.6669 62.4226H70.7586V64.1108ZM68.6135 81.5715V83.2597H70.1069L70.289 81.7774L68.6135 81.5715ZM53.6471 81.5715L51.9716 81.3657L51.7389 83.2597H53.6471V81.5715ZM60.17 69.0996V67.4114H58.6772L58.4945 68.8929L60.17 69.0996ZM59.247 76.5828L57.5716 76.3761L57.3379 78.2709H59.247V76.5828ZM64.2358 76.5828V78.2709H65.7286L65.9113 76.7894L64.2358 76.5828ZM65.1587 69.0996L66.8342 69.3062L67.0679 67.4114H65.1587V69.0996ZM55.7923 65.799H70.7586V62.4226H55.7923V65.799ZM69.0831 63.9049L66.9379 81.3657L70.289 81.7774L72.4342 64.3167L69.0831 63.9049ZM68.6135 79.8834H53.6471V83.2597H68.6135V79.8834ZM55.3227 81.7774L57.4679 64.3167L54.1167 63.9049L51.9716 81.3657L55.3227 81.7774ZM58.4945 68.8929L57.5716 76.3761L60.9225 76.7894L61.8454 69.3062L58.4945 68.8929ZM59.247 78.2709H64.2358V74.8946H59.247V78.2709ZM65.9113 76.7894L66.8342 69.3062L63.4833 68.8929L62.5604 76.3761L65.9113 76.7894ZM65.1587 67.4114H60.17V70.7877H65.1587V67.4114ZM81.3723 69.0996V67.4114H79.879L79.6967 68.8935L81.3723 69.0996ZM79.8382 81.5715V83.2597H81.3315L81.5138 81.7776L79.8382 81.5715ZM74.8494 81.5715L73.1739 81.3654L72.9409 83.2597H74.8494V81.5715ZM76.3835 69.0996L78.059 69.3057L78.292 67.4114H76.3835V69.0996ZM71.3947 69.0996L69.7191 68.8943L69.4871 70.7877H71.3947V69.0996ZM72.0058 64.1108V62.4226H70.5119L70.3302 63.9055L72.0058 64.1108ZM86.9722 64.1108L88.6478 64.3161L88.8798 62.4226H86.9722V64.1108ZM86.3611 69.0996V70.7877H87.855L88.0367 69.3048L86.3611 69.0996ZM79.6967 68.8935L78.1627 81.3654L81.5138 81.7776L83.0478 69.3057L79.6967 68.8935ZM79.8382 79.8834H74.8494V83.2597H79.8382V79.8834ZM76.525 81.7776L78.059 69.3057L74.708 68.8935L73.1739 81.3654L76.525 81.7776ZM76.3835 67.4114H71.3947V70.7877H76.3835V67.4114ZM73.0703 69.3048L73.6815 64.3161L70.3302 63.9055L69.7191 68.8943L73.0703 69.3048ZM72.0058 65.799H86.9722V62.4226H72.0058V65.799ZM85.2965 63.9055L84.6854 68.8943L88.0367 69.3048L88.6478 64.3161L85.2965 63.9055ZM86.3611 67.4114H81.3723V70.7877H86.3611V67.4114Z" fill="#101F52"/>
<path d="M16.2832 35.2041L16.5255 33.2258H20.4822L20.5415 32.7312H16.5849L16.8322 30.7529H20.7888L20.8482 30.2583H16.8915L17.1339 28.28H23.0688L22.2181 35.2041H16.2832ZM24.691 35.2041H22.7127L22.9551 33.2258H24.9334L24.691 35.2041ZM26.0363 28.28H31.9712L31.1205 35.2041H25.1856L26.0363 28.28ZM27.7722 30.2583L27.4062 33.2258H29.3846L29.7505 30.2583H27.7722Z" fill="white"/>
<path d="M28.5186 70.2341H34.4536L33.6029 77.1582H31.6246L31.8076 75.6745H29.8293L29.6463 77.1582H27.668L28.5186 70.2341ZM30.2546 72.2124L30.0716 73.6962H32.0499L32.2329 72.2124H30.2546Z" fill="white"/>
<path d="M52.8398 74.82L54.528 62.3699H53.8949L52.8398 74.82Z" fill="white"/>
<path d="M73.6992 81.8671L75.5044 70.1333H74.8275L73.6992 81.8671Z" fill="white"/>
<path d="M36.5898 74.8203L38.278 62.3701H37.6449L36.5898 74.8203Z" fill="white"/>
<path fill-rule="evenodd" clip-rule="evenodd" d="M18.4555 53.5068L18.4975 53.165L18.5117 53.0844H23.4962L23.4443 53.5068H18.4555ZM18.4036 53.9288L18.3516 54.3513H23.3404L23.3923 53.9288H18.4036ZM18.2479 55.1945L18.2997 54.7733H23.2885L23.2367 55.1945H18.2479ZM18.196 55.6165L17.625 60.2587H22.6138L23.1848 55.6165H18.196ZM29.42 55.6165L28.8497 60.2587H33.8386L34.2742 56.7267H39.263L38.8274 60.2587H43.8161L44.3864 55.6165H29.42ZM45.6336 55.6165L45.0633 60.2587H50.052L50.6205 55.6165H45.6336ZM50.6722 55.1945H45.6854L45.7372 54.7733H50.7238L50.6722 55.1945ZM55.6113 55.6165L55.0408 60.2587H60.0296L60.5999 55.6165H55.6113ZM60.6518 55.1945H55.6631L55.7149 54.7733H60.7035L60.6518 55.1945ZM61.8471 55.6165L61.2768 60.2587H66.2654L66.8317 55.6165H61.8471ZM66.8832 55.1945H61.899L61.9507 54.7733H66.9346L66.8832 55.1945ZM69.0259 55.6165L71.1334 60.2587H76.8955L74.788 55.6165H69.0259ZM74.5964 55.1945H68.8343L68.6431 54.7733H74.4051L74.5964 55.1945ZM78.0589 55.6165L77.4903 60.2587H92.4568L93.0293 55.6165H78.0589ZM93.0814 55.1945H88.0875L88.138 54.7733H93.1333L93.0814 55.1945ZM44.4382 55.1945H29.4719L29.5236 54.7733H44.49L44.4382 55.1945ZM45.789 54.3513H50.7754L50.8272 53.9288H45.8409L45.789 54.3513ZM55.7667 54.3513H60.7554L60.8073 53.9288H55.8186L55.7667 54.3513ZM62.0026 54.3513H66.9861L67.0006 54.2323H68.3975L68.4515 54.3513H74.2135L74.1595 54.2323H76.9782L77.0156 53.9288H62.0545L62.0026 54.3513ZM93.2374 53.9288L93.1853 54.3513H88.1887L88.2029 54.2323H78.2254L78.2628 53.9288H93.2374ZM29.5755 54.3513H44.5418L44.5937 53.9288H29.6274L29.5755 54.3513ZM50.8789 53.5068H45.8928L45.9447 53.0844H50.9306L50.8789 53.5068ZM60.8591 53.5068H55.8705L55.9224 53.0844H60.911L60.8591 53.5068ZM77.0676 53.5068H62.1063L62.1582 53.0844H77.1198L77.0676 53.5068ZM93.2895 53.5068H78.3148L78.3669 53.0844H93.3416L93.2895 53.5068ZM44.6456 53.5068H29.6792L29.7311 53.0844H44.6975L44.6456 53.5068ZM23.5481 52.6623H18.5857L18.7339 51.8179H23.652L23.5481 52.6623ZM29.783 52.6623H44.7493L44.8531 51.8179H29.8867L29.783 52.6623ZM45.9965 52.6623H50.9823L51.0857 51.8179H46.1003L45.9965 52.6623ZM55.9743 52.6623H60.9629L61.0666 51.8179H56.078L55.9743 52.6623ZM62.2101 52.6623H77.1718L77.276 51.8179H62.3138L62.2101 52.6623ZM78.419 52.6623H93.3937L93.4978 51.8179H78.5231L78.419 52.6623Z" fill="url(#paint7_linear_1180_6791)"/>
<path d="M44.8165 62.0095L38.047 62.4608L37.5957 63.3634V62.0095H44.8165Z" fill="white"/>
<path d="M61.0646 62.0095L54.2951 62.4608L53.8438 63.3634V62.0095H61.0646Z" fill="white"/>
<path d="M78.213 62.0095L71.4435 62.4608L70.9922 63.3634V62.0095H78.213Z" fill="white"/>
<path d="M78.213 62.0095L71.4435 62.4608L70.9922 63.3634V62.0095H78.213Z" fill="white"/>
<rect x="42.4727" y="30.0068" width="4.61008" height="5.70194" rx="0.363954" fill="#84D3FF"/>
<rect x="41.1387" y="30.0068" width="4.61008" height="4.48876" rx="0.363954" fill="#172451"/>
<rect x="38.3477" y="23.0527" width="2.30504" height="11.0562" rx="0.849225" transform="rotate(-27.1721 38.3477 23.0527)" fill="#172451"/>
<rect x="37.0137" y="23.0527" width="2.30504" height="11.0562" rx="0.849225" transform="rotate(-27.1721 37.0137 23.0527)" fill="#84D3FF"/>
<rect x="63.2539" y="32.7278" width="32.473" height="3.33428" fill="#84D3FF"/>
<rect x="93.2617" y="33.7427" width="1.12066" height="1.68099" fill="#162751"/>
<path d="M65.4277 35.772H92.6818" stroke="#172451" stroke-width="1.73045"/>
<defs>
<linearGradient id="paint0_linear_1180_6791" x1="53.26" y1="46.3323" x2="53.26" y2="66.1681" gradientUnits="userSpaceOnUse">
<stop stop-color="#142252"/>
<stop offset="1" stop-color="#182552"/>
</linearGradient>
<linearGradient id="paint1_linear_1180_6791" x1="55.7792" y1="42.4219" x2="55.7792" y2="59.8826" gradientUnits="userSpaceOnUse">
<stop stop-color="#84D3FF"/>
<stop offset="1" stop-color="#DF84FF"/>
</linearGradient>
<linearGradient id="paint2_linear_1180_6791" x1="55.7792" y1="42.4219" x2="55.7792" y2="59.8826" gradientUnits="userSpaceOnUse">
<stop stop-color="#84D3FF"/>
<stop offset="1" stop-color="#DF84FF"/>
</linearGradient>
<linearGradient id="paint3_linear_1180_6791" x1="55.7792" y1="42.4219" x2="55.7792" y2="59.8826" gradientUnits="userSpaceOnUse">
<stop stop-color="#84D3FF"/>
<stop offset="1" stop-color="#DF84FF"/>
</linearGradient>
<linearGradient id="paint4_linear_1180_6791" x1="55.7792" y1="42.4219" x2="55.7792" y2="59.8826" gradientUnits="userSpaceOnUse">
<stop stop-color="#84D3FF"/>
<stop offset="1" stop-color="#DF84FF"/>
</linearGradient>
<linearGradient id="paint5_linear_1180_6791" x1="55.7792" y1="42.4219" x2="55.7792" y2="59.8826" gradientUnits="userSpaceOnUse">
<stop stop-color="#84D3FF"/>
<stop offset="1" stop-color="#DF84FF"/>
</linearGradient>
<linearGradient id="paint6_linear_1180_6791" x1="53.1577" y1="37.4695" x2="53.1577" y2="66.6067" gradientUnits="userSpaceOnUse">
<stop stop-color="#0D1A43"/>
<stop offset="1" stop-color="#101F52"/>
</linearGradient>
<linearGradient id="paint7_linear_1180_6791" x1="55.4732" y1="51.8179" x2="55.4732" y2="60.2587" gradientUnits="userSpaceOnUse">
<stop stop-color="white"/>
<stop offset="1" stop-color="#C4C4C4" stop-opacity="0"/>
</linearGradient>
</defs>
</svg>
