<svg fill="none" height="29" viewBox="0 0 28 29" width="28" xmlns="http://www.w3.org/2000/svg" xmlns:xlink="http://www.w3.org/1999/xlink"><filter id="a" color-interpolation-filters="sRGB" filterUnits="userSpaceOnUse" height="29.52" width="29.5201" x="-1.11992" y=".800049"><feFlood flood-opacity="0" result="BackgroundImageFix"/><feColorMatrix in="SourceAlpha" result="hardAlpha" type="matrix" values="0 0 0 0 0 0 0 0 0 0 0 0 0 0 0 0 0 0 127 0"/><feOffset dy="7.2"/><feGaussianBlur stdDeviation="3.6"/><feComposite in2="hardAlpha" operator="out"/><feColorMatrix type="matrix" values="0 0 0 0 1 0 0 0 0 0.854902 0 0 0 0 0.0235294 0 0 0 0.1 0"/><feBlend in2="BackgroundImageFix" mode="normal" result="effect1_dropShadow_42_124"/><feBlend in="SourceGraphic" in2="effect1_dropShadow_42_124" mode="normal" result="shape"/></filter><g fill="#242028" filter="url(#a)"><path d="m18.0498 6.46998c-.3899.00109-.7699.12277-1.088.34835s-.5586.54401-.6886.91165h-8.30336c-.16708 0-.32733.06637-.44547.18452-.11815.11815-.18453.27839-.18453.44548 0 .16708.06638.32733.18453.44548.11814.11814.27839.18452.44547.18452h8.30336c.1156.32689.3189.61569.5876.8348.2687.21912.5925.36002.936.40742s.6934-.0006 1.0114-.1387c.318-.13817.5919-.36113.7917-.64451.1997-.28338.3177-.61625.341-.96219s-.0491-.69162-.2091-.9992c-.1601-.30758-.4016-.56521-.6983-.74469-.2966-.17948-.6369-.27391-.9837-.27293z"/><path d="m7.96984 5.21001h.7434c.13243.36487.37399.68011.69185.90289s.69661.34229 1.08471.34229c.3882 0 .7669-.11951 1.0848-.34229s.5594-.53802.6918-.90289h7.0434c.1671 0 .3274-.06637.4455-.18452.1182-.11815.1845-.27839.1845-.44548 0-.16708-.0663-.32733-.1845-.44547-.1181-.11815-.2784-.18453-.4455-.18453h-7.0434c-.1324-.36486-.3739-.68011-.6918-.90289s-.6966-.34229-1.0848-.34229c-.3881 0-.76685.11951-1.08471.34229s-.55942.53803-.69185.90289h-.7434c-.16708 0-.32733.06638-.44547.18453-.11815.11814-.18453.27839-.18453.44547 0 .16709.06638.32733.18453.44548.11814.11815.27839.18452.44547.18452z"/><path d="m19.3098 11.5101h-4.5234c-.1324-.3649-.3739-.6801-.6918-.9029s-.6966-.3423-1.0848-.3423c-.3881 0-.7669.1195-1.0847.3423-.3179.2228-.5594.538-.6919.9029h-3.26336c-.16708 0-.32733.0663-.44547.1845-.11815.1181-.18453.2784-.18453.4455s.06638.3273.18453.4455c.11814.1181.27839.1845.44547.1845h3.26336c.1325.3648.374.6801.6919.9029.3178.2227.6966.3423 1.0847.3423.3882 0 .7669-.1196 1.0848-.3423.3179-.2228.5594-.5381.6918-.9029h4.5234c.1671 0 .3274-.0664.4455-.1845.1182-.1182.1845-.2784.1845-.4455s-.0663-.3274-.1845-.4455c-.1181-.1182-.2784-.1845-.4455-.1845z"/></g></svg>