<svg fill="none" height="28" viewBox="0 0 27 28" width="27" xmlns="http://www.w3.org/2000/svg"><g fill="#fff" fill-opacity=".7"><path d="m15.3482 14.0186c0 4.1992-3.3748 7.6033-7.53772 7.6033-4.16289 0-7.538019-3.4048-7.538019-7.6033 0-4.19842 3.374879-7.60356 7.538019-7.60356 4.16312 0 7.53772 3.40437 7.53772 7.60356z"/><path d="m23.6181 14.0185c0 3.9527-1.6874 7.1582-3.769 7.1582s-3.769-3.2055-3.769-7.1582c0-3.9526 1.6872-7.15815 3.7687-7.15815 2.0816 0 3.7691 3.20455 3.7691 7.15815"/><path d="m26.9995 14.0183c0 3.5406-.5934 6.4126-1.3256 6.4126-.7321 0-1.3253-2.8712-1.3253-6.4126s.5934-6.41259 1.3253-6.41259c.732 0 1.3256 2.87099 1.3256 6.41259z"/></g></svg>