<svg fill="none" height="31" viewBox="0 0 30 31" width="30" xmlns="http://www.w3.org/2000/svg" xmlns:xlink="http://www.w3.org/1999/xlink"><filter id="a" color-interpolation-filters="sRGB" filterUnits="userSpaceOnUse" height="29.52" width="28.4498" x=".599804" y=".800049"><feFlood flood-opacity="0" result="BackgroundImageFix"/><feColorMatrix in="SourceAlpha" result="hardAlpha" type="matrix" values="0 0 0 0 0 0 0 0 0 0 0 0 0 0 0 0 0 0 127 0"/><feOffset dy="7.2"/><feGaussianBlur stdDeviation="3.6"/><feComposite in2="hardAlpha" operator="out"/><feColorMatrix type="matrix" values="0 0 0 0 1 0 0 0 0 0.854902 0 0 0 0 0.0235294 0 0 0 0.1 0"/><feBlend in2="BackgroundImageFix" mode="normal" result="effect1_dropShadow_19_1691"/><feBlend in="SourceGraphic" in2="effect1_dropShadow_19_1691" mode="normal" result="shape"/></filter><g filter="url(#a)"><path clip-rule="evenodd" d="m15.3393 15.92c.68 0 1.2898-.4188 1.5339-1.0535.3983-1.0354 1.4659-1.6518 2.5618-1.479.6717.1059 1.3393-.2128 1.6793-.8017l.5147-.8915c.3401-.5889.2823-1.3264-.1454-1.8552-.6976-.86264-.6976-2.09546 0-2.9581.4277-.52876.4855-1.26625.1454-1.85517l-.5147-.89156c-.34-.58892-1.0076-.90761-1.6793-.80167-1.0959.17283-2.1636-.44358-2.5618-1.47905-.2441-.6347-.8539-1.053501-1.5339-1.053501h-1.0295c-.68 0-1.2898.418811-1.534 1.053511-.3982 1.03547-1.4659 1.65187-2.5617 1.47904-.67176-.10594-1.33935.21276-1.67936.80167l-.51474.89156c-.34001.58892-.28221 1.32642.14539 1.85518.69762.86263.69762 2.09545.00001 2.95809-.42761.5288-.48541 1.2663-.1454 1.8552l.51474.8915c.34001.5889 1.00761.9076 1.67936.8017 1.0958-.1728 2.1635.4436 2.5617 1.479.2442.6347.854 1.0535 1.534 1.0535zm-2.8157-7.55995c0-1.27074 1.0302-2.30087 2.3009-2.30087 1.2708 0 2.3009 1.03013 2.3009 2.30087 0 1.27073-1.0301 2.30085-2.3009 2.30085-1.2707 0-2.3009-1.03012-2.3009-2.30085z" fill="#242028" fill-rule="evenodd"/></g></svg>