<svg fill="none" height="83" viewBox="0 0 83 83" width="83" xmlns="http://www.w3.org/2000/svg"><circle cx="41.5" cy="41.5" fill="#fff" r="41.5"/><path d="m42.8874 48.1375 6.25-6.25c.1138-.1189.203-.2591.2625-.4125.125-.3043.125-.6457 0-.95-.0595-.1535-.1487-.2936-.2625-.4125l-6.25-6.25c-.1166-.1166-.2549-.209-.4072-.2721s-.3155-.0955-.4803-.0955c-.3329 0-.6521.1322-.8875.3676s-.3676.5546-.3676.8875.1322.6521.3676.8875l4.125 4.1125h-9.4875c-.3315 0-.6495.1317-.8839.3661s-.3661.5524-.3661.8839.1317.6495.3661.8839.5524.3661.8839.3661h9.4875l-4.125 4.1125c-.1172.1162-.2102.2544-.2736.4068-.0635.1523-.0962.3157-.0962.4807s.0327.3284.0962.4807c.0634.1523.1564.2906.2736.4068.1162.1171.2544.2101.4068.2736.1523.0635.3157.0961.4807.0961s.3284-.0326.4807-.0961.2906-.1565.4068-.2736z" fill="#333"/></svg>