<svg fill="none" height="28" viewBox="0 0 27 28" width="27" xmlns="http://www.w3.org/2000/svg"><path clip-rule="evenodd" d="m27.0007 13.9354c0 7.3805-5.9831 13.3636-13.3636 13.3636-7.38056 0-13.363662-5.9831-13.363662-13.3636 0-7.38052 5.983102-13.363623 13.363662-13.363623 7.3805 0 13.3636 5.983103 13.3636 13.363623zm-12.8851-3.4979c-1.2998.5406-3.8976 1.6596-7.79334 3.3569-.63261.2516-.964.4977-.99417.7383-.05099.4067.45831.5669 1.15184.7849.09433.0297.19208.0604.29229.093.68232.2218 1.60017.4813 2.07732.4916.43282.0093.9159-.1691 1.44926-.5353 3.6399-2.4571 5.5189-3.699 5.6368-3.7258.0833-.0189.1986-.0426.2767.0268.0782.0695.0705.201.0622.2363-.0504.2151-2.0496 2.0737-3.0842 3.0355-.3225.2999-.5513.5126-.5981.5611-.1047.1089-.2115.2118-.3141.3107-.6339.6111-1.1093 1.0693.0263 1.8177.5457.3596.9824.657 1.418.9536.4758.324.9503.6472 1.5643 1.0497.1564.1025.3058.209.4513.3127.5537.3948 1.0512.7494 1.6657.6928.3571-.0328.726-.3686.9133-1.37.4427-2.3668 1.3129-7.4947 1.514-9.60781.0177-.18513-.0045-.42207-.0223-.52608s-.055-.2522-.1902-.3619c-.1601-.12992-.4073-.15732-.5178-.15537-.5027.00885-1.2738.277-4.9851 1.82066z" fill="#fff" fill-opacity=".7" fill-rule="evenodd"/></svg>