<svg fill="none" height="24" viewBox="0 0 28 24" width="28" xmlns="http://www.w3.org/2000/svg"><path d="m8.62389 23.2083c10.34201 0 16.00021-8.5703 16.00021-16.00026 0-.24094-.0053-.48723-.016-.72816 1.1007-.79601 2.0506-1.78198 2.805-2.91158-1.0251.45609-2.1135.75396-3.228.88343 1.1735-.7034 2.0521-1.80842 2.4731-3.11021-1.104.65425-2.3113 1.11577-3.5702 1.36477-.8482-.90126-1.9696-1.49801-3.191-1.69797-1.2214-.199959-2.4746.008-3.5659.59172-1.0914.58372-1.96 1.5107-2.4717 2.63762-.5116 1.12691-.6378 2.39099-.359 3.59681-2.2353-.11218-4.42217-.69286-6.4187-1.70441-1.99654-1.01155-3.75821-2.43139-5.17081-4.16746-.71796 1.23785-.93766 2.70262-.61444 4.09663.32321 1.39401 1.16509 2.61265 2.35453 3.40825-.89296-.02835-1.76636-.26877-2.54803-.70139v.0696c-.0008 1.29901.44829 2.55821 1.27092 3.56361.82264 1.0053 1.96805 1.6948 3.24153 1.9511-.82718.2264-1.69535.2593-2.53732.0964.35936 1.1172 1.05853 2.0943 1.99994 2.795.9414.7007 2.07808 1.0899 3.25139 1.1135-1.99193 1.5647-4.45254 2.4134-6.98553 2.4094-.449199-.0007-.897961-.0282-1.34388-.0825 2.57324 1.6509 5.56661 2.5277 8.62389 2.5261z" fill="#fff" fill-opacity=".7"/></svg>