<svg fill="none" height="16" viewBox="0 0 16 16" width="16" xmlns="http://www.w3.org/2000/svg"><path d="m8.88787 15.1375 6.25003-6.25001c.1138-.11888.203-.25906.2625-.4125.125-.30433.125-.64568 0-.95-.0595-.15344-.1487-.29362-.2625-.4125l-6.25003-6.250002c-.11654-.116548-.25491-.208999-.40718-.272075-.15228-.063075-.31549-.09554-.48032-.09554-.33287 0-.65212.132235-.8875.367615-.23538.235382-.36761.554622-.36761.887502 0 .33287.13223.65212.36761.8875l4.12503 4.1125h-9.48753c-.33152 0-.64946.13169-.883881.36611-.234419.23443-.366115.55237-.366115.88389s.131696.64946.366116.88388.55236.36612.88388.36612h9.48753l-4.12503 4.11251c-.11716.1162-.21015.2544-.27361.4068-.06346.1523-.09613.3157-.09613.4807s.03267.3284.09613.4807.15645.2906.27361.4068c.11621.1171.25446.2101.40678.2736.15233.0635.31571.0961.48072.0961.16502 0 .3284-.0326.48072-.0961.15233-.0635.29058-.1565.40678-.2736z" fill="#333"/></svg>